<svg version="1.1" id="Layer_1" xmlns="http://www.w3.org/2000/svg" xmlns:xlink="http://www.w3.org/1999/xlink" x="0px" y="0px"
	 width="100%" viewBox="0 0 1024 1024" enable-background="new 0 0 1024 1024" xml:space="preserve">
<path fill="#FEFEFD" opacity="1.000000" stroke="none" 
	d="
M648.000000,1025.000000 
	C432.000000,1025.000000 216.500000,1025.000000 1.000000,1025.000000 
	C1.000000,683.666687 1.000000,342.333344 1.000000,1.000000 
	C342.333344,1.000000 683.666687,1.000000 1025.000000,1.000000 
	C1025.000000,342.333344 1025.000000,683.666687 1025.000000,1025.000000 
	C899.500000,1025.000000 774.000000,1025.000000 648.000000,1025.000000 
M691.500000,854.615967 
	C718.985535,854.612122 746.471008,854.606201 773.956543,854.604919 
	C798.289001,854.603760 822.621582,854.642090 846.953918,854.589417 
	C854.672974,854.572754 854.678528,854.464478 854.678528,846.970886 
	C854.678589,823.305054 854.674561,799.639221 854.670593,775.973389 
	C854.669434,768.978394 854.667236,768.968018 847.553162,768.967651 
	C738.890015,768.962097 630.226868,768.966980 521.563721,768.943542 
	C511.897491,768.941467 513.079956,769.807312 513.070251,760.298645 
	C513.018982,710.133606 513.053711,659.968628 513.051514,609.803589 
	C513.051270,603.107178 513.032532,603.067200 506.197662,603.064392 
	C476.698700,603.052368 447.199402,603.001953 417.701111,603.146545 
	C413.786774,603.165771 412.497650,602.031250 412.539032,598.056580 
	C412.660339,586.397156 412.272369,574.733521 412.294403,563.071960 
	C412.358307,529.275208 412.530670,495.478699 412.647644,461.682068 
	C412.675018,453.773499 412.651672,445.864716 412.651672,437.464233 
	C411.070770,438.027740 410.559204,438.093781 410.189819,438.358368 
	C384.058472,457.071594 357.909241,475.760406 331.897278,494.638245 
	C330.478027,495.668243 329.517242,498.285767 329.513580,500.166595 
	C329.462341,526.476074 329.711304,552.786072 329.695007,579.095825 
	C329.671906,616.393921 329.492615,653.691956 329.373474,690.989990 
	C329.351624,697.826904 329.337097,697.820374 336.155609,697.818298 
	C379.987457,697.805054 423.819489,697.853333 467.650787,697.692871 
	C472.016357,697.676941 473.367737,698.848572 473.313171,703.297852 
	C473.065887,723.460938 473.099243,743.628723 473.210602,763.793823 
	C473.230835,767.458313 472.541412,769.061890 468.322815,769.053650 
	C399.825287,768.919922 331.327332,768.909119 262.829834,769.045288 
	C258.125275,769.054688 256.974518,767.505127 256.979309,763.044189 
	C257.086761,663.047546 257.044983,563.050781 257.207794,463.054321 
	C257.211395,460.835114 258.689819,457.827087 260.462830,456.527496 
	C274.295807,446.387726 288.409058,436.631653 302.362335,426.654419 
	C355.473572,388.677399 408.552094,350.654663 461.662842,312.677002 
	C465.078857,310.234344 468.664307,308.028595 473.140778,305.072144 
	C473.140778,308.382507 473.139404,310.191711 473.140930,312.000916 
	C473.170776,347.999237 473.207184,383.997528 473.218719,419.995850 
	C473.219604,422.748138 472.872559,425.157227 477.101288,425.210663 
	C485.943573,425.322266 485.940643,425.550903 486.106903,434.262573 
	C486.116425,434.762451 486.088867,435.266632 486.144257,435.761475 
	C487.266754,445.792023 482.955780,452.615875 474.752228,458.397034 
	C456.691223,471.124878 448.497406,488.797943 450.865540,511.043365 
	C454.206390,542.426147 485.838196,564.218872 516.265259,556.079224 
	C539.906982,549.754761 554.813171,528.795593 554.060242,503.692627 
	C553.858643,496.968658 555.091248,490.204132 555.617432,483.454498 
	C555.796814,481.153412 555.829407,478.840881 555.929138,476.533600 
	C553.415222,477.031097 550.833435,477.320038 548.414124,478.108093 
	C547.065369,478.547424 545.974182,479.800385 544.788879,480.715179 
	C536.354614,487.224945 532.791992,496.308472 530.783630,506.401794 
	C528.483948,517.959167 519.109497,525.127930 506.992310,525.120972 
	C496.628052,525.115051 486.464478,516.888855 484.351746,506.611847 
	C481.868073,494.530518 487.025635,485.725067 496.277832,478.453156 
	C507.252258,469.827698 513.045105,458.488892 513.033936,444.348022 
	C513.009521,413.515747 513.034058,382.683411 513.039429,351.851105 
	C513.049316,295.019928 513.059875,238.188736 513.070068,181.357544 
	C513.070618,178.495361 513.070129,175.633163 513.070129,171.822540 
	C509.896301,173.881927 507.899261,175.071762 506.013641,176.417633 
	C486.220367,190.545303 466.436981,204.686798 446.666107,218.845779 
	C396.557098,254.731522 346.469208,290.646667 296.347473,326.514587 
	C256.386047,355.111572 216.420410,383.703003 176.351440,412.148682 
	C172.534332,414.858551 171.163422,417.746185 171.168060,422.436981 
	C171.306763,562.765442 171.289993,703.094055 171.293549,843.422607 
	C171.293823,854.601685 171.279709,854.604980 182.598312,854.605469 
	C221.087555,854.607178 259.576782,854.605286 298.066040,854.606628 
	C344.046844,854.608276 390.027679,854.613586 436.008484,854.614197 
	C520.838989,854.615295 605.669495,854.614136 691.500000,854.615967 
M854.672485,628.500000 
	C854.671509,575.545105 854.669861,522.590271 854.669983,469.635376 
	C854.670044,455.647491 854.160828,441.633514 854.868896,427.681427 
	C855.303162,419.123138 853.690369,412.712341 845.158142,409.399658 
	C844.560364,409.167603 844.093201,408.608398 843.552063,408.219788 
	C817.038269,389.179321 790.584595,370.053802 763.939087,351.199402 
	C760.105286,348.486664 758.600647,345.719940 758.623840,341.027283 
	C758.833069,298.701233 758.795837,256.373932 758.830322,214.047012 
	C758.832458,211.450256 758.830627,208.853500 758.830627,206.286819 
	C757.180115,206.031143 756.366394,205.795425 755.552551,205.794922 
	C728.889954,205.778900 702.227051,205.846252 675.564941,205.728271 
	C671.172485,205.708832 671.325745,208.320450 671.347168,211.294189 
	C671.488892,230.942703 671.657593,250.591309 671.686707,270.240082 
	C671.692932,274.443024 671.162048,278.646759 670.784851,284.239502 
	C642.061890,263.695038 614.420349,243.924042 586.010620,223.603607 
	C585.730347,229.924393 585.314392,235.039719 585.307922,240.155579 
	C585.270569,269.632812 585.300110,299.110229 585.365417,328.587463 
	C585.429565,357.546326 585.617493,386.505005 585.654114,415.463867 
	C585.713928,462.771942 585.704895,510.080109 585.706543,557.388245 
	C585.708069,602.214966 585.734619,647.041809 585.596985,691.868164 
	C585.583679,696.185852 586.399414,697.928589 591.296753,697.919617 
	C677.117249,697.761719 762.938171,697.768677 848.758728,697.897400 
	C853.367859,697.904297 854.817932,696.577637 854.774353,691.990051 
	C854.576477,671.161621 854.676575,650.330261 854.672485,628.500000 
z"/>
<path fill="#FAA212" opacity="1.000000" stroke="none" 
	d="
M691.000000,854.614990 
	C605.669495,854.614136 520.838989,854.615295 436.008484,854.614197 
	C390.027679,854.613586 344.046844,854.608276 298.066040,854.606628 
	C259.576782,854.605286 221.087555,854.607178 182.598312,854.605469 
	C171.279709,854.604980 171.293823,854.601685 171.293549,843.422607 
	C171.289993,703.094055 171.306763,562.765442 171.168060,422.436981 
	C171.163422,417.746185 172.534332,414.858551 176.351440,412.148682 
	C216.420410,383.703003 256.386047,355.111572 296.347473,326.514587 
	C346.469208,290.646667 396.557098,254.731522 446.666107,218.845779 
	C466.436981,204.686798 486.220367,190.545303 506.013641,176.417633 
	C507.899261,175.071762 509.896301,173.881927 513.070129,171.822540 
	C513.070129,175.633163 513.070618,178.495361 513.070068,181.357544 
	C513.059875,238.188736 513.049316,295.019928 513.039429,351.851105 
	C513.034058,382.683411 513.009521,413.515747 513.033936,444.348022 
	C513.045105,458.488892 507.252258,469.827698 496.277832,478.453156 
	C487.025635,485.725067 481.868073,494.530518 484.351746,506.611847 
	C486.464478,516.888855 496.628052,525.115051 506.992310,525.120972 
	C519.109497,525.127930 528.483948,517.959167 530.783630,506.401794 
	C532.791992,496.308472 536.354614,487.224945 544.788879,480.715179 
	C545.974182,479.800385 547.065369,478.547424 548.414124,478.108093 
	C550.833435,477.320038 553.415222,477.031097 555.929077,476.533600 
	C555.829407,478.840881 555.796814,481.153412 555.617432,483.454498 
	C555.091248,490.204132 553.858643,496.968658 554.060242,503.692627 
	C554.813171,528.795593 539.906982,549.754761 516.265259,556.079224 
	C485.838196,564.218872 454.206390,542.426147 450.865540,511.043365 
	C448.497406,488.797943 456.691223,471.124878 474.752228,458.397034 
	C482.955780,452.615875 487.266754,445.792023 486.144257,435.761475 
	C486.088867,435.266632 486.116425,434.762451 486.106903,434.262573 
	C485.940643,425.550903 485.943573,425.322266 477.101288,425.210663 
	C472.872559,425.157227 473.219604,422.748138 473.218719,419.995850 
	C473.207184,383.997528 473.170776,347.999237 473.140930,312.000916 
	C473.139404,310.191711 473.140778,308.382507 473.140778,305.072144 
	C468.664307,308.028595 465.078857,310.234344 461.662842,312.677002 
	C408.552094,350.654663 355.473572,388.677399 302.362335,426.654419 
	C288.409058,436.631653 274.295807,446.387726 260.462830,456.527496 
	C258.689819,457.827087 257.211395,460.835114 257.207794,463.054321 
	C257.044983,563.050781 257.086761,663.047546 256.979309,763.044189 
	C256.974518,767.505127 258.125275,769.054688 262.829834,769.045288 
	C331.327332,768.909119 399.825287,768.919922 468.322815,769.053650 
	C472.541412,769.061890 473.230835,767.458313 473.210602,763.793823 
	C473.099243,743.628723 473.065887,723.460938 473.313171,703.297852 
	C473.367737,698.848572 472.016357,697.676941 467.650787,697.692871 
	C423.819489,697.853333 379.987457,697.805054 336.155609,697.818298 
	C329.337097,697.820374 329.351624,697.826904 329.373474,690.989990 
	C329.492615,653.691956 329.671906,616.393921 329.695007,579.095825 
	C329.711304,552.786072 329.462341,526.476074 329.513580,500.166595 
	C329.517242,498.285767 330.478027,495.668243 331.897278,494.638245 
	C357.909241,475.760406 384.058472,457.071594 410.189819,438.358368 
	C410.559204,438.093781 411.070770,438.027740 412.651672,437.464233 
	C412.651672,445.864716 412.675018,453.773499 412.647644,461.682068 
	C412.530670,495.478699 412.358307,529.275208 412.294403,563.071960 
	C412.272369,574.733521 412.660339,586.397156 412.539032,598.056580 
	C412.497650,602.031250 413.786774,603.165771 417.701111,603.146545 
	C447.199402,603.001953 476.698700,603.052368 506.197662,603.064392 
	C513.032532,603.067200 513.051270,603.107178 513.051514,609.803589 
	C513.053711,659.968628 513.018982,710.133606 513.070251,760.298645 
	C513.079956,769.807312 511.897491,768.941467 521.563721,768.943542 
	C630.226868,768.966980 738.890015,768.962097 847.553162,768.967651 
	C854.667236,768.968018 854.669434,768.978394 854.670593,775.973389 
	C854.674561,799.639221 854.678589,823.305054 854.678528,846.970886 
	C854.678528,854.464478 854.672974,854.572754 846.953918,854.589417 
	C822.621582,854.642090 798.289001,854.603760 773.956543,854.604919 
	C746.471008,854.606201 718.985535,854.612122 691.000000,854.614990 
z"/>
<path fill="#FAA10F" opacity="1.000000" stroke="none" 
	d="
M854.670959,629.000000 
	C854.676575,650.330261 854.576477,671.161621 854.774353,691.990051 
	C854.817932,696.577637 853.367859,697.904297 848.758728,697.897400 
	C762.938171,697.768677 677.117249,697.761719 591.296753,697.919617 
	C586.399414,697.928589 585.583679,696.185852 585.596985,691.868164 
	C585.734619,647.041809 585.708069,602.214966 585.706543,557.388245 
	C585.704895,510.080109 585.713928,462.771942 585.654114,415.463867 
	C585.617493,386.505005 585.429565,357.546326 585.365417,328.587463 
	C585.300110,299.110229 585.270569,269.632812 585.307922,240.155579 
	C585.314392,235.039719 585.730347,229.924393 586.010620,223.603607 
	C614.420349,243.924042 642.061890,263.695038 670.784851,284.239502 
	C671.162048,278.646759 671.692932,274.443024 671.686707,270.240082 
	C671.657593,250.591309 671.488892,230.942703 671.347168,211.294189 
	C671.325745,208.320450 671.172485,205.708832 675.564941,205.728271 
	C702.227051,205.846252 728.889954,205.778900 755.552551,205.794922 
	C756.366394,205.795425 757.180115,206.031143 758.830627,206.286819 
	C758.830627,208.853500 758.832458,211.450256 758.830322,214.047012 
	C758.795837,256.373932 758.833069,298.701233 758.623840,341.027283 
	C758.600647,345.719940 760.105286,348.486664 763.939087,351.199402 
	C790.584595,370.053802 817.038269,389.179321 843.552063,408.219788 
	C844.093201,408.608398 844.560364,409.167603 845.158142,409.399658 
	C853.690369,412.712341 855.303162,419.123138 854.868896,427.681427 
	C854.160828,441.633514 854.670044,455.647491 854.669983,469.635376 
	C854.669861,522.590271 854.671509,575.545105 854.670959,629.000000 
z"/>
</svg>